<svg xmlns="http://www.w3.org/2000/svg" viewBox="0 0 17.99 18.49"><defs><style>.cls-1{fill:#fff;}</style></defs><title>delete</title><g id="buttons"><path class="cls-1" d="M19.5,3.51h-4a1.55,1.55,0,0,1-1.36-.76c-.54-1-1.57-1.24-3.11-1.24s-2.8,0-3.51,1.22a1.66,1.66,0,0,1-1.43.78H2.5a.5.5,0,0,0,0,1H4v0c0,.11,1,11,1,13C5,20,7.45,20,11.5,20S17,20,17,17.5c0-1.95,1-12.84,1-12.95s0,0,0,0H19.5a.5.5,0,1,0,0-1ZM11,2.5c1.62,0,2.14.25,2.38,1H8.19C8.61,2.51,9.3,2.5,11,2.5Zm5,15c0,1.41-.3,1.51-4.51,1.51S6,18.93,6,17.5c0-1.67-.67-9.37-.92-12.09a.84.84,0,0,1,.83-.91h9.75a1.23,1.23,0,0,1,1.23,1.33C16.62,8.85,16,15.91,16,17.5Z" transform="translate(-2.01 -1.51)"/><path class="cls-1" d="M8,18a.5.5,0,0,0,.5-.5V6.5a.5.5,0,0,0-1,0v11A.49.49,0,0,0,8,18Z" transform="translate(-2.01 -1.51)"/><path class="cls-1" d="M11,18a.5.5,0,0,0,.5-.5V6.5a.5.5,0,0,0-1,0v11A.49.49,0,0,0,11,18Z" transform="translate(-2.01 -1.51)"/><path class="cls-1" d="M14,18a.5.5,0,0,0,.5-.5V6.5a.5.5,0,0,0-1,0v11A.49.49,0,0,0,14,18Z" transform="translate(-2.01 -1.51)"/></g></svg>