<svg xmlns="http://www.w3.org/2000/svg" viewBox="0 0 18.88 18.88"><defs><style>.cls-1{fill:#fff;}</style></defs><title>dragmap</title><g id="buttons"><path class="cls-1" d="M22.46,12.17l-2.67-2a.36.36,0,0,0-.57.29v1.33a.33.33,0,0,1-.33.33h-4.7a.33.33,0,0,1-.33-.33V6.86a.33.33,0,0,1,.33-.33h1.1A.36.36,0,0,0,15.58,6l-2-2.67a.47.47,0,0,0-.75,0L10.83,6a.35.35,0,0,0,.28.57h1.1a.33.33,0,0,1,.33.33v4.93a.33.33,0,0,1-.33.33H7.51a.33.33,0,0,1-.33-.33V10.46a.35.35,0,0,0-.56-.29L4,12.17a.47.47,0,0,0,0,.75l3.23,2.43V13.77a.33.33,0,0,1,.33-.33h4.7a.33.33,0,0,1,.33.33v4.47a.33.33,0,0,1-.33.33h-1.1a.35.35,0,0,0-.28.56l2,2.67a.47.47,0,0,0,.75,0l2-2.67a.35.35,0,0,0-.29-.56h-1.1a.33.33,0,0,1-.33-.33V13.77a.33.33,0,0,1,.33-.33h4.7a.33.33,0,0,1,.33.33v1.58l3.24-2.43A.47.47,0,0,0,22.46,12.17Z" transform="translate(-3.76 -3.11)"/></g></svg>