<svg xmlns="http://www.w3.org/2000/svg" viewBox="0 0 27.96 27.96"><defs><style>.cls-1{fill:#183254;}</style></defs><title>icons</title><g id="data_sources" data-name="data sources"><path class="cls-1" d="M20.41,13.4c1.47-2,2.14-3.88,1.49-5a2.39,2.39,0,0,0-1.6-1.07,6.66,6.66,0,0,0-3.2.26C16.32,5.52,15.17,4.09,14,4a2.38,2.38,0,0,0-1.79.73,7.41,7.41,0,0,0-1.79,3.52C8,7.82,5.91,8.1,5.2,9.2A2.33,2.33,0,0,0,5,11.11a7.22,7.22,0,0,0,2.15,3.2,8.24,8.24,0,0,0-2,3.79,2.27,2.27,0,0,0,.46,1.81,2.81,2.81,0,0,0,2.26.91,8.68,8.68,0,0,0,2.91-.63,7.45,7.45,0,0,0,1.82,3.12,2.31,2.31,0,0,0,1.54.65h.22c1.69-.18,2.64-2,3.16-4.23a11.38,11.38,0,0,0,2.17.23,5.38,5.38,0,0,0,1.78-.26,2.24,2.24,0,0,0,1.4-1.24C23.56,16.81,22.25,15,20.41,13.4Zm-.32-5.12a1.5,1.5,0,0,1,1,.6c.25.43.15,1.53-.92,3.21,0,.06-.09.12-.13.19a.57.57,0,0,1-.82.13c-.3-.22-.61-.44-.91-.64a.58.58,0,0,1-.25-.4,18,18,0,0,0-.44-2.3.57.57,0,0,1,.45-.7A5.14,5.14,0,0,1,20.09,8.28Zm-4.55,8.3c-.55.35-1.07.68-1.58,1-.45-.19-.88-.4-1.31-.63-.65-.34-1.24-.68-1.77-1-.06-.55-.1-1.11-.11-1.66,0-.78,0-1.5,0-2.16l.81-.6c.7-.49,1.35-.9,2-1.26a18,18,0,0,1,1.82.89c.61.36,1.19.71,1.73,1,0,.56.06,1.13.05,1.68s0,1.05-.06,1.55A17.76,17.76,0,0,1,15.54,16.58Zm1.39.88c0,.25-.06.49-.1.73a.31.31,0,0,1-.39.25l-.69-.21a.32.32,0,0,1-.08-.57l.41-.26.37-.24A.31.31,0,0,1,16.93,17.46Zm-4.48.92c-.26.14-.51.26-.76.37a.25.25,0,0,1-.35-.16c-.07-.29-.13-.59-.2-.89a.25.25,0,0,1,.38-.26l.67.37.26.13A.25.25,0,0,1,12.45,18.38Zm-2.66-4.1c0,.15,0,.3,0,.45a.24.24,0,0,1-.39.2c-.25-.18-.48-.36-.7-.54a.23.23,0,0,1,0-.35l.69-.69a.24.24,0,0,1,.4.18C9.78,13.77,9.78,14,9.79,14.28Zm1.13-3.49c.05-.4.11-.77.17-1.12a.23.23,0,0,1,.29-.18,5.44,5.44,0,0,1,.54.15.24.24,0,0,1,.06.43l-.93.62Zm4.27-1.42c.35-.16.69-.31,1-.43a.29.29,0,0,1,.39.19c.1.37.19.76.27,1.15a.29.29,0,0,1-.44.31l-.53-.31-.7-.38A.3.3,0,0,1,15.19,9.37Zm3.53,3.93h0a.36.36,0,0,1,.05.52c-.2.22-.41.45-.64.67,0-.21,0-.41,0-.61v-.3A.35.35,0,0,1,18.72,13.3ZM12.86,5.45a1.42,1.42,0,0,1,1-.46c.5,0,1.36.73,2.14,2.56,0,.11.09.23.13.34a19.79,19.79,0,0,0-2.25,1,1,1,0,0,1-.83.06c-.25-.09-.49-.17-.74-.24a1,1,0,0,1-.65-1.34A5.1,5.1,0,0,1,12.86,5.45ZM5.93,10.86A1.46,1.46,0,0,1,6,9.73C6.25,9.39,7,9,8.35,9c.29,0,.6,0,1,.05h.06A.78.78,0,0,1,10,10c-.06.41-.11.84-.15,1.28a.77.77,0,0,1-.28.53c-.43.37-.86.77-1.27,1.18a.79.79,0,0,1-1.15,0A5.46,5.46,0,0,1,5.93,10.86Zm.44,8.41a1.28,1.28,0,0,1-.24-1.05A6.61,6.61,0,0,1,7.46,15.5a.64.64,0,0,1,.91-.13c.41.33.86.65,1.34,1a.66.66,0,0,1,.28.44c.09.65.21,1.3.36,1.93a.63.63,0,0,1-.42.75C8.2,20,7,20,6.37,19.27ZM14.26,23a1.29,1.29,0,0,1-1-.39,6,6,0,0,1-1.38-2.29.51.51,0,0,1,.27-.67c.56-.26,1.12-.55,1.66-.85a.52.52,0,0,1,.44,0c.6.23,1.21.44,1.82.62a.53.53,0,0,1,.37.65C15.93,21.82,15.19,22.87,14.26,23Zm7.7-4.9a1.29,1.29,0,0,1-.82.69,6.24,6.24,0,0,1-2.85.08.56.56,0,0,1-.47-.64c.11-.7.18-1.41.23-2.09a.6.6,0,0,1,.19-.37c.42-.38.82-.77,1.19-1.17a.57.57,0,0,1,.8,0C21.71,15.94,22.34,17.16,22,18.07Z"/><path class="cls-1" d="M13.94,15.2a1.42,1.42,0,1,1,1.42-1.42A1.43,1.43,0,0,1,13.94,15.2Z"/></g></svg>