<svg xmlns="http://www.w3.org/2000/svg" viewBox="0 0 27.96 27.96"><defs><style>.cls-1{fill:#183254;}</style></defs><title>icons</title><g id="data_sources" data-name="data sources"><path class="cls-1" d="M24,13.69a9.46,9.46,0,1,0-10.2,10.2A9.51,9.51,0,0,0,24,13.69Zm-1.12-1.25a3.55,3.55,0,0,1-.53-.22c-.33-.16-1.11-.48-1.46,0q-.32.45.3,1l.12.16a3.6,3.6,0,0,0-.39-.2c-.3-.14-.48-.23-.6-.48a1.64,1.64,0,0,1-.14-.47,1.14,1.14,0,0,0-.7-1A17.63,17.63,0,0,1,17.26,10c-.3-.2-.68-.46-1-.16s-.13.53,0,.77a4.83,4.83,0,0,0-1.15,0l-.47,0c.16-.3.3-.39,1-.85a1.26,1.26,0,0,0,.5-1.52,1.15,1.15,0,0,0,1-.74,2,2,0,0,0,.13-.65.39.39,0,0,1,.53-.35A8.58,8.58,0,0,1,22.85,12.44ZM10.48,7.05h0a.66.66,0,0,0-.26.53.71.71,0,0,0,.42.63l.1.07a1.26,1.26,0,0,1-.3.62,1.54,1.54,0,0,1-1.24.56,3.87,3.87,0,0,0-2.11.81C8.1,8.5,9.2,7.36,10.48,7.05Zm-4.34,9a.6.6,0,0,1,1-.58h0a7,7,0,0,1,.46.78,7.8,7.8,0,0,0,1.13,1.77,5.29,5.29,0,0,0,1,.68l.13.07a2.15,2.15,0,0,0-.47,1.71.34.34,0,0,1-.57.26A8.57,8.57,0,0,1,6.14,16.07Zm16.64.69a8.56,8.56,0,0,1-11.37,5.66,1.81,1.81,0,0,1-1.13-1.52c-.09-.92,0-1.37.24-1.49a.65.65,0,0,0,.42-.57c0-.42-.36-.64-.8-.89a4.14,4.14,0,0,1-.78-.54,8.14,8.14,0,0,1-1-1.55,4.64,4.64,0,0,0-.61-1,2.42,2.42,0,0,0-1.35-.59.47.47,0,0,1-.41-.5H6c0-.3.07-.59.12-.88a2.42,2.42,0,0,1,.75-1.3A4.13,4.13,0,0,1,9.2,10.37a2.47,2.47,0,0,0,2.31-1.51,1.08,1.08,0,0,0-.08-1.18l-.09-.08.29-.15a5.51,5.51,0,0,0,1.65-1.22.82.82,0,0,1,.56-.3h0A9.16,9.16,0,0,1,15.5,6a1,1,0,0,1,.84,1.13.36.36,0,0,1,0,.11c-.07.18-.16.19-.24.19a.85.85,0,0,0-.7.28.86.86,0,0,0-.07.8c.09.36.09.45-.12.59-1,.65-1.06.71-1.43,1.45a.69.69,0,0,0,0,.73c.27.4.86.34,1.49.28.19,0,.36,0,.5,0a3.09,3.09,0,0,1,.61.08c.35.07.66.13.91-.08a.53.53,0,0,0,.18-.28c.63.39,1.12.63,1.6.87.18.09.19.1.22.33a2.21,2.21,0,0,0,.22.75,1.92,1.92,0,0,0,1,.89,1.21,1.21,0,0,1,.33.18,1,1,0,0,0,.56.29h.07a.72.72,0,0,0,.51-.22,1,1,0,0,0,.16-1.15l.09,0a1.38,1.38,0,0,1,.86,1.26A8.26,8.26,0,0,1,22.78,16.76Z"/><path class="cls-1" d="M20.45,14.27a2.93,2.93,0,0,1-.37-.14,3.46,3.46,0,0,1-.68-.92c-.43-.7-.83-1.36-1.43-1.36a1.15,1.15,0,0,0-.89.47l0,0,0,0a2.07,2.07,0,0,0-1.69-.45A3,3,0,0,0,13.13,13l-.1.14c-.62.94-1.67,2.5-.11,3.66a2.49,2.49,0,0,0,2,.52,1.21,1.21,0,0,1,.9.13c.51.35.51,1,.46,2.28,0,.35,0,.75,0,1.17s0,1,.54,1.24a.72.72,0,0,0,.29.06c.39,0,.87-.3,1.54-1A13.9,13.9,0,0,0,21.56,17a2.06,2.06,0,0,0,.24-1.75A1.92,1.92,0,0,0,20.45,14.27Zm.3,2.3a13.28,13.28,0,0,1-2.78,4,4.4,4.4,0,0,1-.8.66,2.5,2.5,0,0,1,0-.35c0-.41,0-.78,0-1.14.06-1.35.1-2.42-.86-3.06a1.84,1.84,0,0,0-1-.31,3,3,0,0,0-.44,0,1.62,1.62,0,0,1-1.36-.34c-.75-.56-.5-1.2.32-2.43l.1-.15a2.16,2.16,0,0,1,1.53-.75,1.24,1.24,0,0,1,1,.19,1.08,1.08,0,0,0,.72.35.93.93,0,0,0,.65-.37c.13-.14.17-.17.2-.18a3.77,3.77,0,0,1,.69.93,3.16,3.16,0,0,0,1.05,1.26,3.25,3.25,0,0,0,.5.19c.33.1.7.22.79.44A1.38,1.38,0,0,1,20.75,16.57Z"/></g></svg>