<svg xmlns="http://www.w3.org/2000/svg" viewBox="0 0 27.96 27.96"><defs><style>.cls-1{fill:#183254;}</style></defs><title>icons</title><g id="data_sources" data-name="data sources"><path class="cls-1" d="M17.27,7.08l0,0c-.4-.4.8-1.2.62-3.16A3.52,3.52,0,0,0,14.93.93,3.67,3.67,0,0,0,11.34,6.8a.17.17,0,0,1-.14.28h0A2.71,2.71,0,0,0,8.49,9.79V16a2.52,2.52,0,0,0,2.07,2.47v4.6A2.93,2.93,0,0,0,13.49,26H15a2.93,2.93,0,0,0,2.93-2.92V18.52A2.52,2.52,0,0,0,20,16.05V9.79A2.73,2.73,0,0,0,17.27,7.08Zm-5.51-2A2.54,2.54,0,1,1,13.65,7,2.55,2.55,0,0,1,11.76,5.12Zm7.11,10.93a1.34,1.34,0,0,1-.31.85.37.37,0,0,1-.65-.24V11.27a.57.57,0,0,0-1.14,0V23.08A1.79,1.79,0,0,1,15,24.87h0a.18.18,0,0,1-.18-.19v-8a.57.57,0,1,0-1.13,0v8a.18.18,0,0,1-.18.19h0a1.79,1.79,0,0,1-1.79-1.79V11.27a.57.57,0,0,0-1.14,0v5.32a.37.37,0,0,1-.66.24A1.37,1.37,0,0,1,9.63,16V9.79A1.57,1.57,0,0,1,11.2,8.22h6.07a1.59,1.59,0,0,1,1.6,1.57Z"/></g></svg>