<svg xmlns="http://www.w3.org/2000/svg" viewBox="0 0 27.96 27.96"><defs><style>.cls-1{fill:#183254;}</style></defs><title>icons</title><g id="data_sources" data-name="data sources"><path class="cls-1" d="M20,16.41,18.25,11.6a.49.49,0,0,0-.33-.31.5.5,0,0,0-.44.1l-.83.71a.37.37,0,0,1-.6-.38c.14-.47.31-.93.48-1.4a11.73,11.73,0,0,0,1-4.41,3.8,3.8,0,0,0-3.74-3.74,3.44,3.44,0,0,0-3.19,1.89A1.81,1.81,0,0,1,9,5H7.49A.48.48,0,0,0,7,5.47V7.21a.49.49,0,0,0,.49.48H9.31a1.76,1.76,0,0,1,1.43.76,6,6,0,0,0,.61.73l0,.33A4.81,4.81,0,0,0,8.78,13c-.18,1.29.16,3.23,2.74,5.2,3.45,2.62,4.82,3.84,4.42,4.58-.23.42-.45.43-.54.43-.79,0-2.21-1.52-3-2.64a.5.5,0,0,0-.51-.2.48.48,0,0,0-.37.4,4.33,4.33,0,0,0,2.19,4.4,4.2,4.2,0,0,0,2,.54A3.55,3.55,0,0,0,18,24.94a3.78,3.78,0,0,0,1-4.23,13.24,13.24,0,0,0-1.18-2.66.56.56,0,0,1,.41-.83l1.34-.17a.47.47,0,0,0,.4-.64ZM17.4,24.18a2.84,2.84,0,0,1-3.18.15c-.92-.51-2.09-1.75-1.56-1.88s1.53,1.85,2.79,1.75a1.65,1.65,0,0,0,1.35-.95c.83-1.52-.94-3-4.69-5.82-1.75-1.33-2.57-2.81-2.37-4.28A3.8,3.8,0,0,1,12,10.26a.91.91,0,0,0,.62-.62c.09-.43-.22-.77-.56-1.13a2.74,2.74,0,0,1-.84-1.36.49.49,0,0,0-.48-.43H8.35A.38.38,0,0,1,8,6.34H8A.38.38,0,0,1,8.35,6h2.28a.49.49,0,0,0,.48-.43,2.65,2.65,0,0,1,2.66-2.39,2.82,2.82,0,0,1,2.76,2.77A10.85,10.85,0,0,1,15.62,10a9.71,9.71,0,0,0-.82,3.51,7,7,0,0,0,1.5,3.94A14.65,14.65,0,0,1,18.07,21,2.8,2.8,0,0,1,17.4,24.18Zm-1.07-8.6-.06-.13a1.76,1.76,0,0,1,.45-2.12l.85-.74,1.28,3.57-1.12.14A1.36,1.36,0,0,1,16.33,15.58Z"/><path class="cls-1" d="M13,5.09a.83.83,0,1,0,.84.83A.83.83,0,0,0,13,5.09Zm0,1a.14.14,0,1,1,0-.28.14.14,0,1,1,0,.28Z"/></g></svg>