<svg xmlns="http://www.w3.org/2000/svg" viewBox="0 0 27.96 27.96"><defs><style>.cls-1{fill:#183254;}</style></defs><title>icons</title><g id="data_sources" data-name="data sources"><path class="cls-1" d="M22.33,11.37l.44-.83a.85.85,0,0,1,.67-.44,1.5,1.5,0,0,0,1.3-1.33,1,1,0,0,0,0-.17,1.51,1.51,0,0,0-1.85-1.47,1.49,1.49,0,0,0-1.09,1,1.44,1.44,0,0,0,0,.94,1.45,1.45,0,0,1-.11,1.15l-.32.58a1.48,1.48,0,0,1-1.31.79H16.74a1.49,1.49,0,0,1-1.26-.7l-1-1.64A1.45,1.45,0,0,1,14.29,8a1.7,1.7,0,0,0-2.91-1.66,1.47,1.47,0,0,1-1.15.55H8.38a1.49,1.49,0,0,1-1.3-.75l0-.06A1.3,1.3,0,0,0,6.32,4,1.31,1.31,0,1,0,6,6.58h.08l0,.09a1.51,1.51,0,0,1,0,1.51L3.81,12.05a.54.54,0,0,0,0,.55L6.1,16.26a1.49,1.49,0,0,1,0,1.56S5,19.43,5,19.43a1.52,1.52,0,0,0-.33,3A1.52,1.52,0,0,0,6.56,21a1.44,1.44,0,0,0-.09-.51,1.51,1.51,0,0,1,.09-1.31l.51-.85a1.48,1.48,0,0,1,1.28-.72h3.39a1.48,1.48,0,0,1,1.28.72L14.64,21a1.64,1.64,0,0,1-.07,1.8h-.11a1.12,1.12,0,0,0-1.07,1.47,1.09,1.09,0,0,0,.71.71,1.12,1.12,0,0,0,1.47-1.06,1.07,1.07,0,0,0-.13-.51l.21-.3a1.51,1.51,0,0,1,1.22-.62h2A1.5,1.5,0,0,1,20,23a1.67,1.67,0,0,0,1.72.57A1.69,1.69,0,0,0,23,22.43a1.75,1.75,0,0,0,0-1.11A1.43,1.43,0,0,1,23,20.08l1.67-2.78a.52.52,0,0,0,0-.54l-2.35-3.92A1.48,1.48,0,0,1,22.33,11.37ZM5.05,21.4A.45.45,0,1,1,5.5,21,.45.45,0,0,1,5.05,21.4ZM23.28,8.15a.45.45,0,1,1-.46.45A.45.45,0,0,1,23.28,8.15ZM12.69,6.78a.65.65,0,0,1,.65.64.69.69,0,0,1-.21.48A.31.31,0,0,0,13,8L12.9,8A.64.64,0,0,1,12,7.42.65.65,0,0,1,12.69,6.78ZM5.77,5.27A.26.26,0,0,1,6,5a.26.26,0,0,1,.25.26A.25.25,0,0,1,6,5.52.26.26,0,0,1,5.77,5.27ZM8.48,8h1.68a1.72,1.72,0,0,1,1.27.61,1.65,1.65,0,0,0,1.65.52l1.39,2.2a1.73,1.73,0,0,1,0,1.76l-1.45,2.58a1.72,1.72,0,0,1-1.5.88H8.45A1.74,1.74,0,0,1,7,15.69L5.44,13.21a1.7,1.7,0,0,1,0-1.79L7,8.79A1.72,1.72,0,0,1,8.48,8ZM14.4,23.89a.06.06,0,0,1,.06-.06.06.06,0,0,1,0,.06C14.51,24,14.4,24,14.4,23.89Zm6.92-1.32a.65.65,0,1,1,0-1.29.78.78,0,0,1,.21,0,.39.39,0,0,0,.1.08l.12.05a.64.64,0,0,1-.43,1.12Zm.37-2.3a1.5,1.5,0,0,0-.37-.05,1.68,1.68,0,0,0-1.27.57,1.7,1.7,0,0,1-1.26.61H17.1a1.72,1.72,0,0,1-1.47-.84L14,17.87a1.71,1.71,0,0,1,0-1.72l1.46-2.61a1.7,1.7,0,0,1,1.5-.88H20a1.71,1.71,0,0,1,1.48.83l1.59,2.65a1.75,1.75,0,0,1,0,1.77Z"/><path class="cls-1" d="M12.3,15.63a.53.53,0,0,0,.53-.53.53.53,0,0,0-.53-.53H7.79a.53.53,0,0,0-.53.53.53.53,0,0,0,.53.53Z"/><path class="cls-1" d="M16.22,13.72a.53.53,0,0,0-.53.53.53.53,0,0,0,.53.53h4.51a.53.53,0,0,0,.53-.53.53.53,0,0,0-.53-.53Z"/></g></svg>