<svg xmlns="http://www.w3.org/2000/svg" viewBox="0 0 27.96 27.96"><defs><style>.cls-1{fill:#183254;}</style></defs><title>icons</title><g id="data_sources" data-name="data sources"><path class="cls-1" d="M24,14.22a2.5,2.5,0,0,0-1.12-1.38,2.65,2.65,0,0,1-1.3-1.93c-.35-2.43-1.75-2.8-2.56-2.8a4.14,4.14,0,0,1-3-1.09,2.56,2.56,0,0,0-1.82-.81,4,4,0,0,0-3,1,3.53,3.53,0,0,1-1.84.94A2.44,2.44,0,0,0,6.71,9.62c-.06.2-.11.4-.16.62a4.07,4.07,0,0,1-1.8,2.81,1.88,1.88,0,0,0-.89,1.35c-.17,1.26.93,2.82,2.63,4.77a19.48,19.48,0,0,0,1.43,1.45.28.28,0,0,0,0,.09c0,1.14.15,2.27,1.27,2.79a9.54,9.54,0,0,0,3.58.37h1.5a9.57,9.57,0,0,0,3.58-.37c1.11-.52,1.27-1.65,1.27-2.79,0,0,0-.07,0-.1.63-.5,1.21-1,1.69-1.4C23.14,17.15,24.34,15.74,24,14.22ZM20.68,11a3.92,3.92,0,0,0,.2.77,2,2,0,0,1-.14,1.7,82.76,82.76,0,0,1-5.86,8.57c-.22.26-.41,0-.31-.31a103.67,103.67,0,0,0,3-12,.9.9,0,0,1,1-.77H19C19.92,9,20.49,9.67,20.68,11Zm-8.94-3.4a5.11,5.11,0,0,1,2.38-.56,1.74,1.74,0,0,1,1.26.6,3.57,3.57,0,0,0,.65.51,1.58,1.58,0,0,1,.66,1.54,94.92,94.92,0,0,1-2.73,12c-.15.5-.5.51-.6,0-.79-3.91-2-8.54-2.77-12.19-.12-.58.4-1.2.77-1.57Zm-4.36,2.8c0-.2.1-.39.15-.54A1.64,1.64,0,0,1,9.25,9c.17,0-.4,0-.22,0,.51,0,.6.31.71.81.88,3.84,2.25,8.16,3,12,.07.35-.41.3-.61,0A88.55,88.55,0,0,1,7.3,12.54a1.94,1.94,0,0,1-.1-1.4C7.28,10.89,7.33,10.66,7.38,10.44ZM7.14,18.6c-1.27-1.46-2.56-3.09-2.43-4.09a1,1,0,0,1,.52-.74,6.8,6.8,0,0,0,.56-.42.68.68,0,0,1,1,.21,86.23,86.23,0,0,0,4.69,8.21c.26.38-.23.57-.61.31A25.43,25.43,0,0,1,7.14,18.6Zm2.4,4.11c-.38-.17-.65-.48-.74-1.3A17.31,17.31,0,0,0,11,23,4,4,0,0,1,9.54,22.71Zm7.93,0a3,3,0,0,1-.82.22.23.23,0,0,1-.16-.41c.47-.31,1-.66,1.44-1a.16.16,0,0,1,.25.16A1.23,1.23,0,0,1,17.47,22.71Zm2.75-4.15c-1.32,1.15-3,3-4.13,3.82-.18.13-.45-.13-.3-.3a67.53,67.53,0,0,0,5.84-8.4.47.47,0,0,1,.69-.15h0c.44.33.71.55.8.89C23.37,15.39,22.61,16.47,20.22,18.56Z"/></g></svg>